HIERARCHY
ROOT hip
{
	OFFSET 0.000000 0.000000 0.000000 
	CHANNELS 6 Xposition Yposition Zposition Zrotation Xrotation Yrotation
	JOINT abdomen
	{
		OFFSET 0.000000 3.402643 0.000000 
		CHANNELS 3 Zrotation Xrotation Yrotation
		JOINT chest
		{
			OFFSET 0.000000 8.438565 -0.680529 
			CHANNELS 3 Zrotation Xrotation Yrotation
			JOINT neck
			{
				OFFSET 0.000000 10.207942 -0.272212 
				CHANNELS 3 Zrotation Xrotation Yrotation
				JOINT head
				{
					OFFSET 0.000000 3.130431 0.000000 
					CHANNELS 3 Zrotation Xrotation Yrotation
					End Site
					{
						OFFSET 0.000000 3.130435 0.000000 
					}
				}
			}
			JOINT lCollar
			{
				OFFSET 3.470700 6.669187 -0.816635 
				CHANNELS 3 Zrotation Xrotation Yrotation
				JOINT lShldr
				{
					OFFSET 3.198488 0.000000 0.000000 
					CHANNELS 3 Zrotation Xrotation Yrotation
					JOINT lForeArm
					{
						OFFSET 10.139888 0.000000 0.000000 
						CHANNELS 3 Zrotation Xrotation Yrotation
						JOINT lHand
						{
							OFFSET 8.370511 0.000000 0.000000 
							CHANNELS 3 Zrotation Xrotation Yrotation
							End Site
							{
								OFFSET 4.083176 0.000000 0.000000 
							}
						}
					}
				}
			}
			JOINT rCollar
			{
				OFFSET -3.470700 6.669187 -0.816635 
				CHANNELS 3 Zrotation Xrotation Yrotation
				JOINT rShldr
				{
					OFFSET -3.198488 0.000000 0.000000 
					CHANNELS 3 Zrotation Xrotation Yrotation
					JOINT rForeArm
					{
						OFFSET -10.139888 0.000000 0.000000 
						CHANNELS 3 Zrotation Xrotation Yrotation
						JOINT rHand
						{
							OFFSET -8.370511 0.000000 0.000000 
							CHANNELS 3 Zrotation Xrotation Yrotation
							End Site
							{
								OFFSET -4.083176 0.000000 0.000000 
							}
						}
					}
				}
			}
		}
	}
	JOINT lThigh
	{
		OFFSET 5.308129 -1.633274 1.361059 
		CHANNELS 3 Zrotation Xrotation Yrotation
		JOINT lShin
		{
			OFFSET -2.041588 -20.007561 0.000000 
			CHANNELS 3 Zrotation Xrotation Yrotation
			JOINT lFoot
			{
				OFFSET 0.000000 -19.190928 -1.224953 
				CHANNELS 3 Zrotation Xrotation Yrotation
				End Site
				{
					OFFSET 0.000000 -2.449906 4.627600 
				}
			}
		}
	}
	JOINT rThigh
	{
		OFFSET -5.308129 -1.633274 1.361059 
		CHANNELS 3 Zrotation Xrotation Yrotation
		JOINT rShin
		{
			OFFSET 2.041588 -20.007561 0.000000 
			CHANNELS 3 Zrotation Xrotation Yrotation
			JOINT rFoot
			{
				OFFSET 0.000000 -19.190928 -1.224953 
				CHANNELS 3 Zrotation Xrotation Yrotation
				End Site
				{
					OFFSET 0.000000 -2.449906 4.627600 
				}
			}
		}
	}
}
MOTION
Frames: 16
Frame Time: 0.033333
-2.799007 48.001163 -2.078809 0.751960 0.253884 35.182362 -0.000000 -0.000002 -0.000000 -0.478817 2.031181 -4.358110 5.647340 12.742629 -30.340359 -0.954937 -15.993991 -0.145955 -2.000757 -0.069240 1.990978 -68.657280 22.098005 7.401914 5.944910 5.054380 -90.114853 -18.083418 -7.280097 -3.750985 1.990970 -0.069577 -2.000746 44.128788 13.932951 -1.126911 -13.903487 -4.290512 108.606155 14.780216 -42.876129 3.492409 8.498787 -15.151641 -16.614141 -8.674277 41.864204 4.030837 -8.563449 -26.242323 5.988633 -20.639261 -11.095164 -29.927113 12.032929 32.379162 -1.243506 -3.277835 -19.003578 -0.874626 
-2.950339 47.329529 -0.954325 1.689849 1.239695 38.264206 -0.000000 -0.000002 -0.000000 -0.215101 2.802716 0.821028 6.537971 11.916433 -37.829147 -0.954937 -15.993991 -0.145955 -2.000757 -0.069240 1.990978 -67.928246 23.405794 2.649821 5.949083 4.689682 -93.500534 -17.006447 -6.485991 -12.050938 1.990970 -0.069577 -2.000746 41.424145 11.021591 -1.472478 -13.886920 -4.344049 108.784546 13.930901 -43.410824 2.890833 7.600862 -17.046959 -16.922003 -9.261803 43.350452 4.442732 -6.612720 -27.357117 3.639432 -23.470196 -9.043984 -34.435226 15.177781 38.119289 -3.106961 -4.613455 -24.850002 0.843689 
-3.452379 45.902676 1.755474 2.569325 1.580441 41.267548 -0.000000 -0.000002 -0.000000 0.126967 0.878909 11.394533 8.141233 14.207004 -50.770573 -0.954937 -15.993991 -0.145955 -2.000757 -0.069240 1.990978 -65.854355 28.358074 -8.474293 5.849902 3.680619 -103.092155 -18.064461 -11.847054 -14.704823 1.990970 -0.069577 -2.000746 36.982307 7.456435 -5.476134 -13.845529 -4.443819 109.203659 13.046599 -43.941906 2.278800 7.983266 -18.506104 -17.829958 -12.144222 50.972008 6.584771 -1.798634 -31.570927 2.956273 -24.664103 -7.847816 -32.652534 19.840977 45.146099 -6.243945 -7.397544 -33.792332 -4.100223 
-3.954429 45.273281 4.465330 3.439513 1.959358 44.267601 -0.000000 -0.000002 -0.000000 0.820422 -0.937402 21.976315 10.210080 16.882816 -63.296959 -0.954937 -15.993991 -0.145955 -2.000757 -0.069240 1.990978 -66.146835 28.936071 -19.665943 5.733272 3.263135 -107.159912 -19.637865 -19.137388 -16.388023 1.990970 -0.069577 -2.000746 31.077438 4.953291 -9.341837 -13.815649 -4.536805 109.543861 12.166098 -44.470440 1.655974 9.283381 -17.961916 -18.408310 -13.269520 53.497524 7.444647 -1.164856 -33.130871 0.600436 -25.754246 -8.997583 -28.179119 25.762426 51.999279 -10.737220 -6.428121 -30.092594 -10.093134 
-4.232747 45.339893 6.927784 4.174038 2.542077 45.977371 -0.000000 -0.000002 -0.000000 1.524968 -2.567450 28.730701 11.888357 19.584824 -70.931038 -0.954937 -15.993991 -0.145955 -2.000757 -0.069240 1.990978 -71.553001 22.567133 -27.689199 5.795746 3.440460 -105.323792 -21.808956 -27.552423 -17.451838 1.990970 -0.069577 -2.000746 25.250116 4.683423 -11.288185 -13.853612 -4.418108 109.099037 11.249699 -44.985664 1.007955 10.789011 -15.157204 -18.640558 -11.875076 50.902649 6.321526 -3.651871 -33.938736 -2.291236 -29.025391 -12.994552 -25.376015 27.356911 53.537930 -11.957620 -4.458250 -27.250029 -15.136327 
-4.063632 45.392147 8.895535 4.705694 3.435673 45.109074 -0.000000 -0.000002 -0.000000 1.644617 -3.992499 27.761297 11.272486 22.165892 -68.919777 -0.954937 -15.993991 -0.145955 -2.000757 -0.069240 1.990978 -74.716431 10.610303 -35.530537 5.835855 3.639177 -103.487930 -23.706589 -38.224075 -19.235712 1.990970 -0.069577 -2.000746 21.048759 6.252023 -8.930498 -13.896175 -4.313543 108.660965 10.316605 -45.497570 0.334374 11.206920 -11.594481 -18.526606 -10.411055 47.703972 5.171625 -5.289646 -34.875561 -2.363224 -33.846443 -16.591427 -27.275742 20.379230 46.362377 -6.513640 -8.011411 -32.712646 -18.256161 
-3.185518 45.162548 10.266106 5.056739 4.786074 40.182457 -0.000000 -0.000002 -0.000000 0.490309 -5.214653 14.995714 5.636287 23.784071 -50.882736 -0.954937 -15.993991 -0.145955 -2.000757 -0.069240 1.990978 -66.739670 -10.961866 -42.210850 5.944387 4.541260 -95.010475 -20.507696 -54.405632 -22.201376 1.990970 -0.069577 -2.000746 18.300205 9.100384 0.929672 -14.021994 -3.878140 106.943428 9.376125 -45.995556 -0.351425 9.854659 -13.504750 -19.326889 -12.600496 52.602287 6.863893 -5.446682 -25.776274 0.899160 -36.000057 -20.617767 -27.285292 15.546263 39.289482 -3.251898 -3.440879 -22.422695 -13.050655 
-1.763598 44.902222 11.195560 5.435057 6.465191 32.130337 -0.000000 -0.000002 -0.000000 -1.854565 -5.602548 -6.841589 -2.499406 21.573139 -20.741041 -0.954937 -15.993991 -0.145955 -2.000757 -0.069240 1.990978 -51.239498 -32.483295 -41.104527 5.835556 6.030977 -80.914742 -30.079998 -69.932327 -31.710430 1.990970 -0.069577 -2.000746 16.006283 12.206411 16.967056 -14.183662 -3.269582 104.544235 8.428150 -46.489338 -1.049655 7.788761 -13.950561 -18.447985 -14.198956 55.659142 8.166677 -7.205498 -18.022745 5.875341 -36.767941 -25.567169 -27.270306 15.642413 39.258705 -3.343011 -0.563015 -10.406390 -4.478147 
-0.214302 44.648701 11.824092 6.018160 8.158525 23.293247 -0.000000 -0.000002 -0.000000 -4.291646 -4.674414 -31.249565 -7.256217 16.029652 10.703868 -0.954937 -15.993991 -0.145955 -2.000757 -0.069240 1.990978 -36.945808 -36.854046 -29.291533 5.896571 5.642009 -84.587013 39.217869 -82.546463 58.176353 1.990970 -0.069577 -2.000746 14.319157 14.999177 34.392254 -14.350693 -2.533014 101.664764 7.452789 -46.978889 -1.760705 7.234628 -11.137641 -13.084904 -13.392876 54.296051 7.479071 -8.159644 -18.759672 8.604378 -37.375912 -30.210779 -28.859875 17.257576 41.663769 -4.380332 -3.059385 -12.833623 2.159387 
1.045860 44.426170 12.291980 6.744166 9.544109 16.055584 -0.000000 -0.000002 -0.000000 -5.858312 -3.118429 -51.756344 -8.088006 11.663419 35.111038 -0.954937 -15.993991 -0.145955 -2.000757 -0.069240 1.990978 -27.376602 -34.700268 -31.486557 5.068633 8.003447 -60.808407 -150.682053 -69.913223 -109.279877 1.990970 -0.069577 -2.000746 13.350614 17.562014 48.284992 -14.476583 -1.732343 98.541046 6.449443 -47.453606 -2.498929 6.710894 -7.738829 -7.078156 -11.810459 51.212608 6.197992 -7.996784 -21.690313 9.982529 -35.677555 -35.418182 -29.336594 18.680712 43.323975 -5.455261 -7.906343 -10.907083 -4.112032 
1.380344 44.403042 12.626410 7.369721 10.481060 13.984205 -0.000000 -0.000002 -0.000000 -6.158204 -2.495300 -59.606129 -8.092414 11.121438 42.946606 -0.954937 -15.993991 -0.145955 -2.000757 -0.069240 1.990978 -22.898558 -32.617664 -40.923294 2.735415 10.185269 -30.233650 -146.300842 -49.372589 -89.430832 1.990970 -0.069577 -2.000746 14.682640 19.588453 50.240681 -14.556755 -0.965580 95.652031 5.437376 -47.912895 -3.264634 5.434083 -6.826314 -7.067243 -11.220414 49.766460 5.774874 -8.455642 -21.346510 12.029742 -35.581371 -37.122162 -29.720997 19.266579 44.042179 -5.876969 -9.474254 -10.329036 -7.451177 
0.168577 44.777924 12.250302 7.403732 10.654683 20.654972 -0.000000 -0.000002 -0.000000 -5.215001 -3.530280 -47.245831 -6.504060 14.053226 28.225304 -0.954937 -15.993991 -0.145955 -2.000757 -0.069240 1.990978 -33.516544 -17.706495 -77.267235 -0.334656 10.889198 -0.089501 -130.496155 -41.168827 -78.354446 1.990970 -0.069577 -2.000746 22.066755 19.457077 31.897694 -14.617547 -0.028126 92.081711 4.394926 -48.386066 -4.045720 4.645975 -9.062787 -14.469159 -11.368804 50.054504 5.876311 -9.574603 -18.225040 12.728287 -37.045277 -35.060196 -29.842188 19.513762 44.476936 -6.028987 -8.762403 -10.309876 -13.969660 
-0.668594 44.941792 11.169035 6.605351 9.013035 26.001730 -0.000000 -0.000002 -0.000000 -4.455549 -4.235255 -37.742573 -4.574119 16.950911 14.881116 -0.954937 -15.993991 -0.145955 -2.000757 -0.069240 1.990978 -33.049561 -8.307772 -59.573093 3.849419 9.431136 -42.919922 -145.503723 -56.780682 -106.542244 1.990970 -0.069577 -2.000746 25.208977 17.492847 25.826422 -14.427998 2.719945 81.592590 3.355952 -48.824978 -4.838892 5.921950 -9.048213 -17.032738 -11.092680 49.594223 5.643892 -8.004002 -21.699265 10.424105 -36.676277 -32.702667 -29.042343 18.722004 43.535389 -5.436194 -7.026438 -8.433213 -18.100409 
-1.301337 44.959652 9.864967 5.580142 6.249775 30.845703 -0.000000 -0.000002 -0.000000 -3.900944 -4.891038 -29.825300 -2.109930 20.016794 2.069826 -0.954937 -15.993991 -0.145955 -2.000757 -0.069240 1.990978 -28.785892 -1.143939 -33.210602 5.647053 6.768941 -73.694054 -157.887268 -63.167015 -131.265060 1.990970 -0.069577 -2.000746 25.089157 15.700338 27.493740 -13.074649 6.941663 64.575706 2.296804 -49.267143 -5.647331 9.016076 -7.658151 -16.199806 -10.458214 47.986652 5.182225 -5.872975 -27.928362 5.344250 -35.365536 -29.848787 -27.780212 17.586386 42.176220 -4.636902 -4.765459 -6.470459 -21.265636 
-1.906223 44.937229 8.445902 4.664560 2.988134 35.684025 -0.000000 -0.000002 -0.000000 -3.375031 -5.517817 -21.858097 1.298008 22.270226 -11.419719 -0.954937 -15.993991 -0.145955 -2.000757 -0.069240 1.990978 -27.863962 7.896451 -19.025122 5.717859 6.530467 -76.044266 -137.474106 -65.033043 -120.282036 1.990970 -0.069577 -2.000746 23.843702 13.822865 30.595421 -10.565634 10.525919 47.575451 1.198763 -49.691746 -6.484263 12.690947 -6.425709 -14.821089 -9.833773 46.349701 4.726636 -5.840808 -34.376961 -1.409248 -33.359474 -26.184793 -26.310688 15.620661 39.169827 -3.314499 -2.312423 -4.204045 -24.280455 
-2.470115 44.937332 6.945129 3.974651 -0.263038 40.028034 -0.000000 -0.000002 -0.000000 -2.611648 -5.931374 -14.420455 5.195137 23.702124 -24.349020 -0.954937 -15.993991 -0.145955 -2.000757 -0.069240 1.990978 -30.836613 20.025555 -12.985043 5.767650 6.322706 -78.091949 -86.033569 -69.964561 -77.254959 1.990970 -0.069577 -2.000746 22.740641 11.903073 31.976900 -8.681555 12.180815 37.788857 0.088919 -50.109253 -7.351433 15.822140 -6.362489 -14.447104 -9.496950 45.560318 4.469286 -7.755665 -39.412926 -7.766196 -30.427834 -22.290047 -24.856892 13.001696 34.904678 -1.727912 -0.316263 -2.214545 -27.481138 
